<?xml version="1.0" encoding="UTF-8"?>
<svg id="Layer_1" data-name="Layer 1" xmlns="http://www.w3.org/2000/svg" viewBox="0 0 3764.67 2015.37">
  <defs>
    <style>
      .cls-1, .cls-2, .cls-3, .cls-4 {
        stroke: #000;
        stroke-linecap: round;
        stroke-linejoin: round;
        stroke-width: 100px;
      }

      .cls-1, .cls-5 {
        fill: #8d6316;
      }

      .cls-2, .cls-6 {
        fill: #f1bf61;
      }

      .cls-3, .cls-7 {
        fill: #ff4754;
      }

      .cls-8, .cls-4 {
        fill: #58b12e;
      }

      .cls-9 {
        fill: #f6f7f8;
        stroke: #090c08;
        stroke-miterlimit: 10;
        stroke-width: 21px;
      }
    </style>
  </defs>
  <g>
    <path class="cls-2" d="m1452.48,1233.85h1000v175c0,41.39-33.61,75-75,75h-850c-41.39,0-75-33.61-75-75v-175h0Z"/>
    <rect class="cls-4" x="1452.48" y="905.85" width="1000" height="150" rx="54.06" ry="54.06"/>
    <rect class="cls-1" x="1452.48" y="1067.85" width="1000" height="150" rx="54.06" ry="54.06"/>
    <path class="cls-2" d="m1527.48,479.85h850c41.39,0,75,33.61,75,75v175h-1000v-175c0-41.39,33.61-75,75-75Z"/>
    <rect class="cls-3" x="1452.48" y="743.85" width="1000" height="150" rx="54.06" ry="54.06"/>
  </g>
  <g>
    <path class="cls-6" d="m2377.48,1483.85h-850c-41.42,0-75-33.58-75-75v-175h1000s0,175,0,175c0,41.42-33.58,75-75,75Z"/>
    <rect class="cls-8" x="1452.48" y="905.85" width="1000" height="150" rx="54.06" ry="54.06"/>
    <rect class="cls-5" x="1452.48" y="1067.85" width="1000" height="150" rx="54.06" ry="54.06"/>
    <path class="cls-6" d="m2452.48,729.85h-1000v-175c0-41.42,33.58-75,75-75h850c41.42,0,75,33.58,75,75v175Z"/>
    <rect class="cls-7" x="1452.48" y="743.85" width="1000" height="150" rx="54.06" ry="54.06"/>
  </g>
  <path class="cls-9" d="m2262.84,1158.1c-6.51,52.49-1.68,90.79,29.78,85.31,26.78-4.95,45.59-38.1,68.08-79.95,10.96-19.82,18.14-29.03,27.23-32.19,9.63-3.3,11.76,5.14,8.29,31.85-10.58,77.35-34.21,169.88-75.07,252.85-40.54,81.64-98.32,153.72-169.96,159.53-55.01,5.39-93.39-33.03-115.26-91-70.49,75.33-157.96,108.3-256.39,50.57-61.75-35.32-107.56-107.75-134.63-184.33-27.02-78.02-35.31-160.2-20.97-248.12,9.93-59.17,32.55-132.37,66.69-213.22,34.06-80.18,79.64-168.01,133.43-240.77-9.48-2.35-18.68-6.04-28.06-8.17-64.62-14.14-99.9,25.27-108.3,76.66-6.57,40.95,2.63,58.42.66,70.75-8.01,51.42-69.46,78.8-123.64,64.33-39.79-10.13-63.01-32.37-76.07-60.94-12.84-29.16-15.52-64.64-9.17-114.83,9.1-65.07,30.39-143.7,73.89-214.9,43.35-69.54,108.92-131.64,202.94-125.31,108.95,6.44,194.18,94.3,260.46,167.36,23.24-3.42,47.44.56,71.31,11.25,55.93,25.86,78.62,84.58,70,136.07-12.36,74.16-73.14,103.52-127.5,91.79-76.75,102.54-117.33,236.23-134.68,340.08-8.5,50.66,5.99,92.49,31.75,100.71,37.57,11.9,70.14-8.63,102.32-43.15,27.11-153.49,82.66-323.38,142.94-426.47,60.36-105.62,125.44-144.43,173.57-94.36,25.24,24.69,39.68,57.54,47.16,90.76,7.33,33.79,7.7,67.95,1.4,108.57-6.8,42.76-20.91,91.23-43.02,149.27-22.04,57.42-52.08,124.42-89.21,190.01Z"/>
</svg>